<svg width="1024" height="1024" viewBox="0 0 1024 1024" xmlns="http://www.w3.org/2000/svg">
  <!-- Background circle -->
  <circle cx="512" cy="512" r="480" fill="#2563eb" stroke="#1d4ed8" stroke-width="8"/>
  
  <!-- Browser window -->
  <rect x="200" y="280" width="624" height="464" rx="32" fill="#ffffff" stroke="#e5e7eb" stroke-width="4"/>
  
  <!-- Title bar -->
  <rect x="200" y="280" width="624" height="80" rx="32" fill="#f3f4f6"/>
  <rect x="200" y="328" width="624" height="32" fill="#f3f4f6"/>
  
  <!-- Traffic lights -->
  <circle cx="240" cy="320" r="12" fill="#ef4444"/>
  <circle cx="280" cy="320" r="12" fill="#f59e0b"/>
  <circle cx="320" cy="320" r="12" fill="#10b981"/>
  
  <!-- URL bar -->
  <rect x="360" y="304" width="320" height="32" rx="16" fill="#ffffff" stroke="#d1d5db" stroke-width="2"/>
  
  <!-- Address bar icon -->
  <circle cx="384" cy="320" r="6" fill="#6b7280"/>
  
  <!-- Page content lines -->
  <rect x="240" y="400" width="480" height="12" rx="6" fill="#e5e7eb"/>
  <rect x="240" y="440" width="360" height="12" rx="6" fill="#e5e7eb"/>
  <rect x="240" y="480" width="520" height="12" rx="6" fill="#e5e7eb"/>
  <rect x="240" y="520" width="280" height="12" rx="6" fill="#e5e7eb"/>
  
  <!-- AI brain icon overlay -->
  <g transform="translate(680, 600)">
    <!-- Brain outline -->
    <path d="M20 40 C20 20, 40 0, 80 0 C120 0, 140 20, 140 40 C140 45, 138 50, 135 54 C140 58, 145 65, 145 75 C145 85, 140 92, 135 96 C138 100, 140 105, 140 110 C140 130, 120 150, 80 150 C40 150, 20 130, 20 110 C20 105, 22 100, 25 96 C20 92, 15 85, 15 75 C15 65, 20 58, 25 54 C22 50, 20 45, 20 40 Z" 
          fill="#8b5cf6" stroke="#7c3aed" stroke-width="3"/>
    <!-- Neural connections -->
    <circle cx="45" cy="50" r="4" fill="#a78bfa"/>
    <circle cx="75" cy="45" r="4" fill="#a78bfa"/>
    <circle cx="105" cy="55" r="4" fill="#a78bfa"/>
    <circle cx="55" cy="85" r="4" fill="#a78bfa"/>
    <circle cx="95" cy="90" r="4" fill="#a78bfa"/>
    <circle cx="75" cy="115" r="4" fill="#a78bfa"/>
    <!-- Connection lines -->
    <line x1="45" y1="50" x2="75" y2="45" stroke="#c4b5fd" stroke-width="2"/>
    <line x1="75" y1="45" x2="105" y2="55" stroke="#c4b5fd" stroke-width="2"/>
    <line x1="45" y1="50" x2="55" y2="85" stroke="#c4b5fd" stroke-width="2"/>
    <line x1="105" y1="55" x2="95" y2="90" stroke="#c4b5fd" stroke-width="2"/>
    <line x1="55" y1="85" x2="75" y2="115" stroke="#c4b5fd" stroke-width="2"/>
    <line x1="95" y1="90" x2="75" y2="115" stroke="#c4b5fd" stroke-width="2"/>
  </g>
  
  <!-- Sparkles for AI effect -->
  <g fill="#fbbf24">
    <path d="M350 200 L355 210 L365 205 L355 215 L350 225 L345 215 L335 205 L345 210 Z"/>
    <path d="M750 250 L753 256 L759 253 L753 259 L750 265 L747 259 L741 253 L747 256 Z"/>
    <path d="M180 500 L183 506 L189 503 L183 509 L180 515 L177 509 L171 503 L177 506 Z"/>
    <path d="M850 450 L855 460 L865 455 L855 465 L850 475 L845 465 L835 455 L845 460 Z"/>
  </g>
</svg> 